PathFileType	4	(X/Y/Z)	/Users/itak/Documents/Research/Walk-IL/dataset/trc/00491_00167.trc
DataRate	CameraRate	NumFrames	NumMarkers	Units	OrigDataRate	OrigDataStartFrame	OrigNumFrames
100.000000	100.000000	4	53	mm	100.000000	483	552
Frame#	Time	RPSI			LPSI			L3			STRN			T10			C7			CLAV			RBAK			LBAK			LSHO			LUPA			LAEL			LAOL			LWTS			LWPS			LFRA			LIFD			LHPS			LHTS			RSHO			RUPA			RAEL			RAOL			RWTS			RWPS			RFRA			RIFD			RHTS			RHPS			RBHD			LFHD			RFHD			LBHD			LHIP			RHIP			RASI			LASI			LKNE			LTHI			LANK			LTIP			LTOE			LMT1			LMT5			LHEE			RKNE			RTHI			RANK			RTIP			RTOE			RMT1			RMT5			RHEE			
		X1	Y1	Z1	X2	Y2	Z2	X3	Y3	Z3	X4	Y4	Z4	X5	Y5	Z5	X6	Y6	Z6	X7	Y7	Z7	X8	Y8	Z8	X9	Y9	Z9	X10	Y10	Z10	X11	Y11	Z11	X12	Y12	Z12	X13	Y13	Z13	X14	Y14	Z14	X15	Y15	Z15	X16	Y16	Z16	X17	Y17	Z17	X18	Y18	Z18	X19	Y19	Z19	X20	Y20	Z20	X21	Y21	Z21	X22	Y22	Z22	X23	Y23	Z23	X24	Y24	Z24	X25	Y25	Z25	X26	Y26	Z26	X27	Y27	Z27	X28	Y28	Z28	X29	Y29	Z29	X30	Y30	Z30	X31	Y31	Z31	X32	Y32	Z32	X33	Y33	Z33	X34	Y34	Z34	X35	Y35	Z35	X36	Y36	Z36	X37	Y37	Z37	X38	Y38	Z38	X39	Y39	Z39	X40	Y40	Z40	X41	Y41	Z41	X42	Y42	Z42	X43	Y43	Z43	X44	Y44	Z44	X45	Y45	Z45	X46	Y46	Z46	X47	Y47	Z47	X48	Y48	Z48	X49	Y49	Z49	X50	Y50	Z50	X51	Y51	Z51	X52	Y52	Z52	X53	Y53	Z53	

484	4.83	390.5828552246094	956.3397216796875	-279.5194091796875	249.7519989013672	957.5333862304688	-293.7447204589844	338.7046203613281	1047.439453125	-295.8866577148438	341.2673950195312	1252.11474609375	-550.4282836914062	335.1201171875	1170.741821289062	-270.1258239746094	351.1143188476562	1442.363403320312	-323.7166748046875	337.1894836425781	1362.913696289062	-509.7602233886719	445.0650329589844	1319.550659179688	-264.8660888671875	249.5518188476562	1392.944580078125	-292.4034423828125	172.1478729248047	1417.749267578125	-395.3583374023438	72.20783233642578	1299.830078125	-402.6701049804688	41.19659423828125	1088.742431640625	-460.7432861328125	93.99313354492188	1060.740356445312	-376.0816955566406	108.7668304443359	908.479736328125	-571.936767578125	44.79754638671875	886.2890625	-541.1433715820312	39.03837203979492	1006.841064453125	-500.5305786132812	99.64501953125	752.1553344726562	-619.2597045898438	43.42020797729492	815.4793090820312	-569.6183471679688	100.9734725952148	830.9376220703125	-611.0808715820312	511.0394592285156	1409.457275390625	-395.1007080078125	584.9608154296875	1346.17236328125	-381.6351318359375	637.0250854492188	1059.785278320312	-399.300048828125	600.0096435546875	1045.601928710938	-344.2122802734375	579.6694946289062	845.973388671875	-481.3423767089844	648.0647583007812	837.733154296875	-426.6514892578125	646.6406860351562	1001.647277832031	-401.6214294433594	583.7808837890625	690.4854125976562	-467.0860595703125	587.310302734375	747.8903198242188	-488.6087341308594	640.3300170898438	748.0382080078125	-432.5959167480469	428.2041320800781	1648.695068359375	-427.2241516113281	246.6855010986328	1653.125732421875	-525.3408203125	373.5157470703125	1661.626953125	-552.9879760742188	259.2604675292969	1641.954956054688	-372.9677734375	140.707275390625	864.2227783203125	-440.5445556640625	536.1182861328125	851.5853881835938	-379.06298828125	487.1261901855469	891.8051147460938	-492.4561767578125	231.5178527832031	898.1672973632812	-530.7802734375	171.4274597167969	443.3834533691406	-448.3207702636719	153.06201171875	596.72900390625	-473.0487670898438	156.4127807617188	41.05421829223633	-342.3798217773438	154.0877532958984	294.0708312988281	-430.85888671875	251.7858123779297	40.94713592529297	-566.8257446289062	273.5143127441406	45.78709411621094	-489.1960754394531	157.61376953125	44.09724044799805	-497.144775390625	216.7756042480469	45.72317123413086	-292.9021606445312	511.4679870605469	462.0856018066406	-391.2135009765625	551.4845581054688	719.244873046875	-417.1680908203125	513.4180297851562	39.98628234863281	-294.1322326660156	522.5667114257812	319.1317749023438	-377.9092407226562	482.2248229980469	41.191162109375	-518.251220703125	444.0463562011719	50.43751907348633	-454.3851318359375	550.01953125	41.10456466674805	-423.84423828125	461.2525939941406	34.17795944213867	-234.6889190673828	
485	4.84	389.8318786621094	956.6256103515625	-279.737548828125	248.9930114746094	957.7965087890625	-294.03662109375	337.7835083007812	1047.601928710938	-296.1907958984375	340.4564819335938	1252.137084960938	-550.7890625	334.0859375	1170.848754882812	-270.4064636230469	350.2007446289062	1442.5126953125	-324.1795959472656	336.3657836914062	1362.959350585938	-510.2109069824219	443.9939270019531	1319.710693359375	-265.2232360839844	248.7185516357422	1393.13330078125	-292.8002319335938	171.2973327636719	1418.02783203125	-395.7417297363281	71.19911193847656	1300.230102539062	-402.6076354980469	40.31175994873047	1088.849609375	-459.801513671875	93.52440643310547	1061.098510742188	-375.3759155273438	108.4353408813477	909.1594848632812	-571.4860229492188	44.67626190185547	886.50439453125	-540.5462646484375	38.46330261230469	1007.029235839844	-499.7462463378906	99.98983001708984	753.0026245117188	-619.2991943359375	43.59772491455078	815.7548217773438	-569.2587890625	100.8742904663086	831.8088989257812	-610.9053344726562	510.1817016601562	1409.603515625	-395.3948364257812	584.0509033203125	1346.342529296875	-381.6254272460938	635.4204711914062	1059.785278320312	-397.289306640625	597.811279296875	1046.13623046875	-342.4815063476562	579.2706298828125	845.0008544921875	-477.8357543945312	646.8153686523438	837.5521240234375	-422.0245971679688	645.05712890625	1001.649475097656	-398.9308471679688	583.552978515625	689.5652465820312	-461.2546691894531	587.2181396484375	746.621337890625	-483.5843811035156	639.384033203125	747.8147583007812	-426.8297119140625	427.4519958496094	1648.671997070312	-427.8763427734375	246.0790710449219	1653.12548828125	-526.1964111328125	372.9522705078125	1661.463745117188	-553.7613525390625	258.4618835449219	1642.203247070312	-373.7625732421875	139.9832763671875	864.30859375	-440.5681457519531	535.4610595703125	851.7587280273438	-379.039306640625	486.4164428710938	891.842529296875	-492.4893493652344	230.7581329345703	898.0223388671875	-530.9680786132812	170.7651672363281	443.5515441894531	-446.5526733398438	152.2978973388672	596.6904907226562	-471.6559753417969	156.2660827636719	40.95671463012695	-342.2936096191406	153.5915679931641	294.369384765625	-429.6148681640625	251.6913604736328	40.9896354675293	-566.725341796875	273.4961547851562	45.85346221923828	-489.137939453125	157.5816802978516	44.07499694824219	-497.1065979003906	216.6204071044922	45.67027282714844	-292.8336181640625	511.0845336914062	462.2191772460938	-390.9855651855469	551.1113891601562	719.8323364257812	-416.4597778320312	513.34228515625	39.98919296264648	-294.1860656738281	522.3809204101562	319.3095397949219	-377.6734313964844	482.2510375976562	41.20154571533203	-518.2463989257812	444.0984497070312	50.45811080932617	-454.4200134277344	550.0536499023438	41.12738418579102	-423.8105773925781	461.251708984375	34.23997116088867	-234.7273406982422	
486	4.850000000000001	389.1380615234375	956.8569946289062	-279.9348754882812	248.28564453125	958.0411376953125	-294.2536010742188	336.8887939453125	1047.725341796875	-296.4387817382812	339.6918334960938	1252.118408203125	-551.12109375	333.0659484863281	1170.926391601562	-270.667724609375	349.2918701171875	1442.647827148438	-324.6114807128906	335.5890808105469	1363.001831054688	-510.6345825195312	442.9283142089844	1319.8388671875	-265.544677734375	247.8728637695312	1393.311645507812	-293.2093811035156	170.4649047851562	1418.286010742188	-396.1432495117188	70.20660400390625	1300.59423828125	-402.5965270996094	39.49031448364258	1088.913208007812	-458.903564453125	93.11093139648438	1061.449584960938	-374.6856079101562	108.096061706543	909.6074829101562	-570.888427734375	44.55653762817383	886.5642700195312	-539.7517700195312	37.92655944824219	1007.121276855469	-498.9240417480469	100.2739028930664	753.5252075195312	-618.7926635742188	43.7784309387207	815.7758178710938	-568.509765625	100.7424011230469	832.3138427734375	-610.4130859375	509.3397521972656	1409.73876953125	-395.6325073242188	583.1786499023438	1346.546875	-381.5167541503906	634.0021362304688	1059.830078125	-395.1448364257812	595.7864990234375	1046.62548828125	-340.6695861816406	579.0980834960938	844.2537841796875	-474.6744079589844	645.6531372070312	837.4465942382812	-417.6286926269531	643.66455078125	1001.696899414062	-396.1763916015625	583.3084106445312	688.9110717773438	-456.15478515625	587.260498046875	745.6447143554688	-479.1414184570312	638.3731689453125	747.72265625	-421.5031433105469	426.7620239257812	1648.627319335938	-428.5148010253906	245.5427093505859	1653.10693359375	-527.0608520507812	372.4732360839844	1661.243896484375	-554.5278930664062	257.705078125	1642.472534179688	-374.5691833496094	139.2783203125	864.3338623046875	-440.5172119140625	534.957763671875	851.9255981445312	-378.9695129394531	485.685302734375	891.859130859375	-492.5107727050781	229.9863433837891	897.84765625	-531.067626953125	170.1171417236328	443.6777954101562	-444.8347473144531	151.5706024169922	596.624755859375	-470.2687683105469	156.1162567138672	40.8612060546875	-342.2008056640625	153.1160583496094	294.6395263671875	-428.385986328125	251.6063385009766	41.03400802612305	-566.630859375	273.4703369140625	45.91617965698242	-489.0726928710938	157.55859375	44.05581283569336	-497.0653381347656	216.4712066650391	45.61360931396484	-292.7609252929688	510.7290649414062	462.3156433105469	-390.8447265625	550.8839111328125	720.5372314453125	-415.5859069824219	513.28955078125	39.99433517456055	-294.2270812988281	522.1869506835938	319.4555358886719	-377.5107727050781	482.2719421386719	41.21021270751953	-518.2435302734375	444.1475830078125	50.4778938293457	-454.45263671875	550.0902099609375	41.1439208984375	-423.7821350097656	461.2561645507812	34.2950325012207	-234.7622833251953	
487	4.86	388.4904479980469	957.0352783203125	-280.1037902832031	247.6300201416016	958.2674560546875	-294.3975524902344	336.0198669433594	1047.812622070312	-296.6295166015625	338.9679565429688	1252.055908203125	-551.4231567382812	332.0574035644531	1170.980102539062	-270.916015625	348.3900146484375	1442.769165039062	-325.0216064453125	334.8614501953125	1363.032348632812	-511.0351257324219	441.8724365234375	1319.939819335938	-265.8299865722656	247.0116577148438	1393.479736328125	-293.6361999511719	169.6476440429688	1418.51025390625	-396.5707397460938	69.232177734375	1300.893432617188	-402.63427734375	38.72600555419922	1088.915405273438	-458.06982421875	92.72443389892578	1061.77294921875	-374.0183715820312	107.7414093017578	909.7967529296875	-570.1488647460938	44.42444229125977	886.4515991210938	-538.77880859375	37.41551208496094	1007.09716796875	-498.0852966308594	100.509651184082	753.6867065429688	-617.7859497070312	43.96158981323242	815.5265502929688	-567.406982421875	100.5899887084961	832.4296875	-609.614990234375	508.5137634277344	1409.846069335938	-395.8185424804688	582.3431396484375	1346.762451171875	-381.3133544921875	632.7791748046875	1059.901000976562	-392.8955383300781	593.958251953125	1047.051513671875	-338.7906799316406	579.12744140625	843.7188110351562	-471.8663330078125	644.5867919921875	837.3853149414062	-413.5158386230469	642.46875	1001.767211914062	-393.3929748535156	583.0394287109375	688.4915771484375	-451.846923828125	587.4024658203125	744.947998046875	-475.3182678222656	637.3137817382812	747.7164916992188	-416.6968078613281	426.138916015625	1648.567260742188	-429.1441040039062	245.0704498291016	1653.064697265625	-527.9267578125	372.0660705566406	1660.970092773438	-555.2789306640625	257.0021667480469	1642.744995117188	-375.3870544433594	138.5910797119141	864.2994995117188	-440.3899230957031	534.576416015625	852.0795288085938	-378.8688659667969	484.9320983886719	891.858154296875	-492.5235290527344	229.2130432128906	897.6533203125	-531.0792236328125	169.4859619140625	443.7576599121094	-443.1846618652344	150.8848266601562	596.5364990234375	-468.9105224609375	155.9645080566406	40.76773071289062	-342.1043090820312	152.654296875	294.8768005371094	-427.192626953125	251.5299835205078	41.08250427246094	-566.54150390625	273.4335021972656	45.97530746459961	-488.9960327148438	157.5460205078125	44.03865051269531	-497.0172729492188	216.3247680664062	45.5504035949707	-292.6840515136719	510.4070739746094	462.3776245117188	-390.7865600585938	550.8153686523438	721.3235473632812	-414.5686950683594	513.2662353515625	39.99998474121094	-294.251220703125	521.9848022460938	319.5684814453125	-377.4171752929688	482.2872924804688	41.21787261962891	-518.2409057617188	444.1889038085938	50.49469375610352	-454.4805908203125	550.1273803710938	41.14953231811523	-423.7633972167969	461.2698059082031	34.34070587158203	-234.7916412353516	
